# xmcd
#
# Track frame offsets:
#	150
#	14825
#	25892
#	37972
#
# Disc length: 668 seconds
#
# Revision: 1
# Processed by: cddbd v1.5.2PL0 Copyright (c) Steve Scherf et al.
# Submitted via: audiograbber 1.83.01
#
DISCID=2a029a04
DTITLE=Teenage Fanclub - Sparky's Dream (Alternative Version) [EP]
DYEAR=1995
DGENRE=Power Pop
TTITLE0=Sparky's Dream (Alternative Version)
TTITLE1=Try And Stop Me
TTITLE2=That's All I Need To Know
TTITLE3=Who Loves The Sun
EXTD=
EXTT0=
EXTT1=
EXTT2=
EXTT3=
PLAYORDER=
